# xmcd
#
# Track frame offsets: 
#        150
#        12183
#        23030
#        34177
#        45170
#        57629
#        70840
#        90620
#        99996
#        112978
#        122683
#        138078
#        147480
#        157778
#        170396
#        180217
#        190201
#        201425
#        215789
#        224433
#        241401
#
# Disc length: 3390 seconds
#
# Revision: 1
# Processed by: cddbd v1.5.2PL0 Copyright (c) Steve Scherf et al.
# Submitted via: ExactAudioCopy v0.99pb5
#
DISCID=210d3c15
DTITLE=Various Artist - The Golden Age Of Belgian Jazz (Volume 1)
DYEAR=2002
DGENRE=Jazz
TTITLE0=Gene Connors - Brussels Boogie-Woogie
TTITLE1=David Bee and Peter Packay - Charleston Crazy
TTITLE2=Peter Packay - Jazz In The Rain
TTITLE3=David Bee and Peter Packay - Vladivostok
TTITLE4=Peter Packay - Paradise And You
TTITLE5=Fud Candrix and Gus Deloof - Riffin At The Arena
TTITLE6=Eric Sande - Second Session Blues
TTITLE7=David Bee - High Tension
TTITLE8=David Bee and Peter Packay - Allahabad
TTITLE9=David Bee and Peter Packay - Gee-Up Charleston
TTITLE10=John Ouwerx - Berceuse Pour Michel
TTITLE11=Peter Packay - Dixie Melody
TTITLE12=David Bee - Pork And Beens
TTITLE13=Bobby Nared and Fud Candrix - Voices Of The World
TTITLE14=David Bee and Peter Packay - Baby Lou
TTITLE15=David Bee and Peter Packay - Chinese Charleston
TTITLE16=David Bee - Black Heaven
TTITLE17=Peter Packay - Hailli Heidi Huh Huh
TTITLE18=Peter Packay - Midnight Music
TTITLE19=Eric Sande - Trafalgar Shuffle
TTITLE20=Gus Deloof and Fud Candix - En Balayant Le Parquet
EXTD=YEAR: 2002
EXTT0=
EXTT1=
EXTT2=
EXTT3=
EXTT4=
EXTT5=
EXTT6=
EXTT7=
EXTT8=
EXTT9=
EXTT10=
EXTT11=
EXTT12=
EXTT13=
EXTT14=
EXTT15=
EXTT16=
EXTT17=
EXTT18=
EXTT19=
EXTT20=
PLAYORDER=
